HIERARCHY
ROOT pelvis
{
  OFFSET 0 0 0
  CHANNELS 6 Xposition Yposition Zposition Zrotation Xrotation Yrotation
  JOINT pelvis_right_femur
  {
    OFFSET -11.43119 -3.542788 0.2090856
    CHANNELS 3 Zrotation Xrotation Yrotation
    JOINT right_femur_tibia
    {
      OFFSET -1.028693 -40.73281 5
      CHANNELS 3 Zrotation Xrotation Yrotation
      JOINT right_tibia_foot
      {
        OFFSET -0.5013517 -42.05707 -5
        CHANNELS 3 Zrotation Xrotation Yrotation
        End Site
        {
          OFFSET 0 -5 10
        }
      }
    }
  }
  JOINT pelvis_left_femur
  {
    OFFSET 11.43119 -3.542788 0.2090856
    CHANNELS 3 Zrotation Xrotation Yrotation
    JOINT left_femur_tibia
    {
      OFFSET 1.028693 -40.73281 5
      CHANNELS 3 Zrotation Xrotation Yrotation
      JOINT left_tibia_foot
      {
        OFFSET 0.3200228 -42.98253 -5
        CHANNELS 3 Zrotation Xrotation Yrotation
        End Site
        {
          OFFSET 0 -5 10
        }
      }
    }
  }
  JOINT pelvis_spine1
  {
    OFFSET 0 8.64413 -3.209807
    CHANNELS 3 Zrotation Xrotation Yrotation
    JOINT spine1
    {
      OFFSET 0 29.53957 -1.762685
      CHANNELS 3 Zrotation Xrotation Yrotation
      JOINT spine2
      {
        OFFSET 0 16.36153 -0.1422377
        CHANNELS 3 Zrotation Xrotation Yrotation
        JOINT neck
        {
          OFFSET 0 11.60093 5
          CHANNELS 3 Zrotation Xrotation Yrotation
          End Site
          {
            OFFSET 0 20 0
          }
        }
      }
      JOINT right_manubrium
      {
        OFFSET -4.671311 15.89868 4
        CHANNELS 3 Zrotation Xrotation Yrotation
        JOINT right_clavicle
        {
          OFFSET -13.601 1.573642 -2.74176
          CHANNELS 3 Zrotation Xrotation Yrotation
          JOINT right_humerus
          {
            OFFSET -0.06331682 -27.72702 2.252146
            CHANNELS 3 Zrotation Xrotation Yrotation
            JOINT right_radius
            {
              OFFSET -0.5696302 -23.92083 0.4042105
              CHANNELS 3 Zrotation Xrotation Yrotation
              End Site
              {
                OFFSET 0 -15 0
              }
            }
          }
        }
      }
      JOINT left_manubrium
      {
        OFFSET 4.671311 15.89868 4
        CHANNELS 3 Zrotation Xrotation Yrotation
        JOINT left_clavicle
        {
          OFFSET 13.601 1.573642 -2.74176
          CHANNELS 3 Zrotation Xrotation Yrotation
          JOINT left_humerus
          {
            OFFSET 0.000209614 -29.01858 1.101395
            CHANNELS 3 Zrotation Xrotation Yrotation
            JOINT left_radius
            {
              OFFSET -0.2288314 -24.59216 1.790347
              CHANNELS 3 Zrotation Xrotation Yrotation
              End Site
              {
                OFFSET 0 -15 0
              }
            }
          }
        }
      }
    }
  }
}
MOTION
Frames: 15
Frame Time: 0.0416666666667
-0.004868917 48.01404 1.803559 -3.036783 -22.50378 -1.824049 -49.25742 -60.07036 -38.104 -180 81.51713 -180 10.71467 2.776519 3.144988 63.90199 -47.69678 50.98634 -180 71.91606 -180 -7.077519 -7.698854 -13.0182 -2.202829 17.57102 0.101682 10.23556 14.76837 -11.27739 -9.661493 7.652458 7.312038 9.641699 -25.86471 1.794244 19.35387 -9.737018 27.22136 -59.7901 -34.72759 14.94603 0 -70.48073 0 3.96094 -21.04992 -6.705624 -26.90893 -31.35449 -8.84135 50.8027 -28.13355 -37.81164 0 -77.53931 0 -23.12625 -2.149765 -2.37488
-0.03499436 47.98985 1.844448 -2.939949 -22.49855 -2.052828 -49.27209 -60.27314 -38.07158 -180 81.49399 -180 10.69723 2.816882 3.225596 63.76963 -47.55804 50.8712 -180 71.89599 -180 -7.094121 -7.742185 -12.88583 -2.241247 17.75089 -0.2521429 10.30395 14.81455 -11.44109 -9.935789 7.665742 6.669818 9.708766 -25.69693 0.6858082 19.22904 -10.40622 26.51528 -60.78142 -33.55779 13.76488 0 -71.07702 0 3.315889 -21.84927 -6.841034 -26.87033 -31.60378 -8.30886 51.2832 -27.61186 -37.54498 0 -78.07989 0 -23.41925 -1.030312 -4.631916
-0.06058353 47.96912 1.887202 -2.843617 -22.47356 -2.200884 -49.34262 -60.42614 -38.08957 -180 81.47022 -180 10.68334 2.834898 3.289566 63.64563 -47.48096 50.77991 -180 71.88359 -180 -7.104531 -7.77593 -12.77525 -2.228862 17.96981 -0.5385881 10.32616 14.87375 -11.59932 -10.07376 7.764091 5.825702 9.876649 -25.53562 -0.6606976 19.09603 -11.40473 25.82417 -61.9621 -32.32307 12.31534 0 -71.28715 0 2.773692 -22.60658 -6.870724 -26.84689 -31.88163 -7.583771 51.94731 -26.82292 -37.02509 0 -78.28446 0 -23.61102 0.2958729 -7.047136
-0.08037771 47.9652 1.926805 -2.761393 -22.43214 -2.242801 -49.43635 -60.49301 -38.14094 -180 81.45894 -180 10.6759 2.827152 3.328649 63.53625 -47.46795 50.72005 -180 71.89115 -180 -7.105291 -7.795585 -12.69927 -2.132335 18.22072 -0.7320727 10.28615 14.95016 -11.7412 -10.12893 7.931054 4.819568 10.12926 -25.39773 -2.217467 18.9141 -12.69994 25.14581 -63.32 -30.94596 10.62192 0 -70.85736 0 2.321418 -23.26265 -6.831336 -26.8502 -32.20098 -6.734493 52.71506 -25.85722 -36.34712 0 -78.14257 0 -23.69676 1.8427 -9.599833
-0.0769981 47.97974 1.971842 -2.694925 -22.36254 -2.168888 -49.60576 -60.47494 -38.25289 -180 81.44961 -180 10.67548 2.795484 3.338123 63.45114 -47.52059 50.72384 -180 71.91434 -180 -7.09779 -7.798829 -12.67166 -1.935404 18.51719 -0.834538 10.18627 15.02695 -11.86161 -10.15059 8.117629 3.684934 10.44141 -25.3128 -3.956721 18.67836 -14.26095 24.48028 -64.83831 -29.36357 8.713687 0 -69.5235 0 1.961078 -23.74785 -6.763881 -26.87237 -32.59458 -5.805562 53.55244 -24.76765 -35.53443 0 -77.56979 0 -23.67082 3.573812 -12.22159
-0.1161624 47.95362 2.006868 -2.541858 -22.26757 -2.007108 -49.92197 -60.50795 -38.458 -180 81.37794 -180 10.68711 2.733974 3.320463 63.41361 -47.61129 50.82723 -180 71.94829 -180 -7.084673 -7.782801 -12.69783 -1.821367 18.8595 -0.7717747 10.01048 15.07226 -11.91868 -10.18988 8.331248 2.44057 10.76268 -25.25328 -5.869499 18.41076 -16.03864 23.87954 -66.42788 -27.6124 6.686929 0 -67.201 0 1.697863 -24.02565 -6.691356 -26.83319 -33.07041 -4.822785 54.41778 -23.63007 -34.63697 0 -76.69458 0 -23.53213 5.37752 -14.85752
-0.1170499 47.94746 2.04994 -2.413447 -22.16777 -1.770036 -50.23961 -60.4728 -38.64856 -180 81.32262 -180 10.70138 2.661743 3.281208 63.37421 -47.74569 50.95874 -180 71.98958 -180 -7.066909 -7.757039 -12.75026 -1.573366 19.2086 -0.6606705 9.766324 15.14213 -11.9268 -10.30946 8.610852 1.142489 11.04433 -25.22074 -7.89907 18.12434 -17.9952 23.42703 -68.02465 -25.74006 4.615692 0 -63.83785 0 1.526664 -24.06925 -6.62886 -26.78145 -33.56091 -3.855366 55.16482 -22.54067 -33.80508 0 -75.87715 0 -23.30072 7.094903 -17.46782
-0.05433083 47.99287 2.101152 -2.3569 -22.06026 -1.495839 -50.48935 -60.33416 -38.76735 -180 81.32426 -180 10.71172 2.5946 3.2288 63.30337 -47.90362 51.0821 -180 72.03783 -180 -7.048508 -7.726489 -12.80564 -1.090905 19.53855 -0.5768682 9.4551 15.24431 -11.87407 -10.56001 8.968625 -0.07805888 11.25541 -25.19387 -9.894242 17.8252 -20.05011 23.21211 -69.54279 -23.852 2.626405 0 -59.55643 0 1.459418 -23.88351 -6.564153 -26.74231 -34.01119 -3.035629 55.70443 -21.61923 -33.15671 0 -75.41488 0 -23.02252 8.573609 -19.97942
-0.02357441 48.00261 2.145315 -2.2002 -21.92744 -1.244937 -50.8381 -60.3277 -38.93186 -180 81.27988 -180 10.72431 2.522029 3.179509 63.25064 -48.03317 51.26331 -180 72.07843 -180 -7.037521 -7.686642 -12.86341 -0.7190767 19.87542 -0.4324376 9.087579 15.30666 -11.7268 -10.91312 9.314443 -1.112092 11.39866 -25.16006 -11.68491 17.55265 -22.10375 23.26141 -70.87857 -22.10563 0.8297368 0 -54.77164 0 1.499772 -23.51849 -6.451021 -26.59044 -34.35733 -2.413412 56.14383 -20.84449 -32.68541 0 -75.12682 0 -22.72426 9.758941 -22.2707
0.01766347 48.01207 2.193072 -2.011984 -21.77462 -1.023888 -51.24246 -60.37799 -39.13054 -180 81.23062 -180 10.73367 2.455327 3.140962 63.19757 -48.14776 51.46861 -180 72.11719 -180 -7.033434 -7.641124 -12.9048 -0.3391579 20.21388 -0.2806924 8.672236 15.33277 -11.4957 -11.34569 9.621347 -1.904301 11.50102 -25.15469 -13.17806 17.32344 -24.16796 23.5672 -72.05677 -20.51953 -0.8061007 0 -49.59123 0 1.617909 -23.0099 -6.31298 -26.40428 -34.67445 -2.025856 56.51695 -20.21188 -32.28823 0 -75.0101 0 -22.41305 10.62885 -24.31775
0.06616858 48.04345 2.251669 -1.823737 -21.59431 -0.8355241 -51.68023 -60.44272 -39.39436 -180 81.18511 -180 10.73988 2.398005 3.130773 63.13934 -48.25078 51.66339 -180 72.1586 -180 -7.033635 -7.597567 -12.91909 0.06257897 20.5459 -0.1075601 8.234792 15.38008 -11.23203 -11.81949 9.837695 -2.468123 11.57262 -25.22196 -14.35329 17.17584 -26.24305 24.12556 -73.09173 -19.11094 -2.310365 0 -44.16131 0 1.783065 -22.39527 -6.166984 -26.23297 -34.95258 -1.854485 56.86571 -19.64724 -31.92978 0 -74.93655 0 -22.11239 11.23484 -26.10825
0.0849869 48.08254 2.307601 -1.626598 -21.39962 -0.6681458 -52.16803 -60.50973 -39.76384 -180 81.14227 -180 10.74264 2.351122 3.166786 63.06624 -48.35705 51.8168 -180 72.21343 -180 -7.038634 -7.564924 -12.89751 0.4600503 20.86409 0.09525845 7.765756 15.4311 -10.91876 -12.31435 9.987345 -2.822156 11.59433 -25.35122 -15.21279 17.13942 -28.2519 24.85714 -73.96086 -17.86724 -3.672322 0 -38.74701 0 1.965935 -21.72437 -6.004463 -26.13413 -35.23387 -1.845965 57.11301 -19.19399 -31.58636 0 -75.12561 0 -21.80186 11.56718 -27.67104
0.08901708 48.1181 2.361378 -1.435467 -21.20294 -0.511773 -52.74363 -60.54451 -40.28014 -180 81.10568 -180 10.74076 2.314194 3.252752 62.97614 -48.48794 51.91709 -180 72.27663 -180 -7.04798 -7.545614 -12.84108 0.8785776 21.18068 0.3033844 7.277052 15.44989 -10.58796 -12.82718 10.08465 -2.964393 11.5559 -25.52938 -15.75034 17.22507 -30.14096 25.6872 -74.6524 -16.80185 -4.883065 0 -33.61268 0 2.136468 -21.05548 -5.807532 -26.17944 -35.52812 -1.991144 57.19644 -18.85882 -31.24961 0 -75.58833 0 -21.47873 11.70028 -29.01977
0.07938677 48.15355 2.413002 -1.253714 -21.00502 -0.3732356 -53.36637 -60.55549 -40.90412 -180 81.06968 -180 10.7347 2.288209 3.380954 62.88394 -48.63269 51.97295 -180 72.33884 -180 -7.060381 -7.53363 -12.75354 1.303644 21.49802 0.5166149 6.796862 15.46121 -10.25596 -13.36584 10.11856 -2.894472 11.44607 -25.74102 -15.96728 17.44927 -31.88299 26.56492 -75.17768 -15.91994 -5.957097 0 -28.93761 0 2.271124 -20.42891 -5.562973 -26.36303 -35.78482 -2.239741 57.14072 -18.56934 -30.93122 0 -76.15658 0 -21.14862 11.72067 -30.16961
0.07038504 48.19348 2.459365 -1.081159 -20.79798 -0.2523555 -54.00948 -60.56236 -41.57665 -180 81.04818 -180 10.72117 2.274247 3.535198 62.79027 -48.78741 52.00991 -180 72.39985 -180 -7.079344 -7.528587 -12.63718 1.742919 21.81026 0.7197246 6.355481 15.4637 -9.923868 -13.93233 10.09486 -2.655887 11.25149 -25.96613 -15.9195 17.79936 -33.46471 27.44973 -75.56583 -15.20586 -6.915538 0 -24.82875 0 2.356447 -19.86548 -5.263256 -26.60366 -35.98977 -2.516794 57.00959 -18.29784 -30.6303 0 -76.7546 0 -20.81683 11.67753 -31.14216
